<?xml version="1.0" standalone="yes"?>
<!DOCTYPE svg PUBLIC "-//W3C//DTD SVG 1.1//EN" "http://www.w3.org/Graphics/SVG/1.1/DTD/svg11.dtd">
<svg width="64" height="64" version="1.1" xmlns="http://www.w3.org/2000/svg">
    <g transform="scale(64)">
        <path fill="#20C050" d="
            M 0.1,0 h 0.7 c 0.2,0 0.2,0 0.2,0.2 v 0.2 c 0,0.2 0,0.2 -0.2,0.2
            c -0.2,0 -0.2,0 -0.2,0.2 c 0,0.2 0,0.2 -0.2,0.2 h -0.2
            c -0.2,0 -0.2,0 -0.2,-0.2 v -0.3 c 0,-0.1 0,-0.1 0.1,-0.1 h 0.3
            c 0.05,0 0.05,-0.1 0,-0.1 h -0.3 c -0.1,0 -0.1,0 -0.1,-0.1 v -0.1
            c 0,-0.1 0,-0.1 0.1,-0.1 Z
        " />
        <path transform=" translate(0.7, 0.7) scale(0.3)" fill="#20A048" d="
            M 0.1,0 h 0.7 c 0.2,0 0.2,0 0.2,0.2 v 0.2 c 0,0.2 0,0.2 -0.2,0.2
            c -0.2,0 -0.2,0 -0.2,0.2 c 0,0.2 0,0.2 -0.2,0.2 h -0.2
            c -0.2,0 -0.2,0 -0.2,-0.2 v -0.3 c 0,-0.1 0,-0.1 0.1,-0.1 h 0.3
            c 0.05,0 0.05,-0.1 0,-0.1 h -0.3 c -0.1,0 -0.1,0 -0.1,-0.1 v -0.1
            c 0,-0.1 0,-0.1 0.1,-0.1 Z
        " />
        <path transform=" translate(0.91, 0.91) scale(0.09)" fill="#208040" d="
            M 0.1,0 h 0.7 c 0.2,0 0.2,0 0.2,0.2 v 0.2 c 0,0.2 0,0.2 -0.2,0.2
            c -0.2,0 -0.2,0 -0.2,0.2 c 0,0.2 0,0.2 -0.2,0.2 h -0.2
            c -0.2,0 -0.2,0 -0.2,-0.2 v -0.3 c 0,-0.1 0,-0.1 0.1,-0.1 h 0.3
            c 0.05,0 0.05,-0.1 0,-0.1 h -0.3 c -0.1,0 -0.1,0 -0.1,-0.1 v -0.1
            c 0,-0.1 0,-0.1 0.1,-0.1 Z
        " />
        <path transform=" translate(0.973, 0.973) scale(0.027)" fill="#206038" d="
            M 0.33,0 h 0.34 c 0.33,0 0.33,0 0.33,0.33 v 0.34 c 0,0.33 0,0.33 -0.33,0.33
            h -0.34 c -0.33,0 -0.33,0 -0.33,-0.33 v -0.34 c 0,-0.33 0,-0.33 0.33,-.33 Z
        " />
    </g>
</svg>
