<?xml version="1.0" standalone="yes"?>
<!DOCTYPE svg PUBLIC "-//W3C//DTD SVG 1.1//EN" "http://www.w3.org/Graphics/SVG/1.1/DTD/svg11.dtd">
<svg width="64" height="64" version="1.1" xmlns="http://www.w3.org/2000/svg">
    <g transform="scale(64)">
        <path fill="#20C050" d="
            M 0.1,0 h 0.7 c 0.2,0 0.2,0 0.2,0.2 v 0.2 c 0,0.2 0,0.2 -0.2,0.2
            c -0.2,0 -0.2,0 -0.2,0.2 c 0,0.2 0,0.2 -0.2,0.2 h -0.2
            c -0.2,0 -0.2,0 -0.2,-0.2 v -0.3 c 0,-0.1 0,-0.1 0.1,-0.1 h 0.3
            c 0.05,0 0.05,-0.1 0,-0.1 h -0.3 c -0.1,0 -0.1,0 -0.1,-0.1 v -0.1
            c 0,-0.1 0,-0.1 0.1,-0.1 Z
        " />

        <path fill="#20A048" d="
            M 0.73,0.7 h 0.21 c 0.06,0 0.06,0 0.06,0.06 v 0.06 c 0,0.06 0,0.06 -0.06,0.06
            c -0.06,0 -0.06,0 -0.06,0.06 c 0,0.06 0,0.06 -0.06,0.06 h -0.06
            c -0.06,0 -0.06,0 -0.06,-0.06 v -0.09 c 0,-0.03 0,-0.03 0.03,-0.03 h 0.09
            c 0.015,0 0.015,-0.03 0,-0.03 h -0.09 c -0.03,0 -0.03,0 -0.03,-0.03 v -0.03
            c 0,-0.03 0,-0.03 0.03,-0.03 Z
        " />
        <path fill="#208040" d="
            M 0.94,0.91 h 0.03 c 0.03,0 0.03,0 0.03,0.03 v 0.03 c 0,0.03 0,0.03 -0.03,0.03
            h -0.03 c -0.03,0 -0.03,0 -0.03,-0.03 v -0.03 c 0,-0.03 0,-0.03 0.03,-0.03 Z
        " />
    </g>
</svg>
